<svg width="100" height="40" viewBox="0 0 100 40" fill="none" xmlns="http://www.w3.org/2000/svg">
<rect width="100" height="40" fill="#F5F5F5"/>
<g filter="url(#filter0_i_0_1)">
<g clip-path="url(#clip0_0_1)">
<rect width="100" height="40" rx="1" fill="#848484"/>
<g filter="url(#filter1_d_0_1)">
<path d="M5.30664 14.8418H7.16406L10.4922 18.1816L13.8203 14.8418H15.6777V24H13.8203V17.4141L10.4922 20.6191L7.16406 17.4141V24H5.30664V14.8418ZM21.8849 16.4707H18.5041V14.8418H27.1232V16.4707H23.7423V24H21.8849V16.4707ZM29.9495 14.8418H31.807V19.582L36.6409 14.8418H39.0198L34.5081 19.2129L39.0198 24H36.5472L33.1722 20.5078L31.807 21.8262V24H29.9495V14.8418ZM40.2173 19.3652C40.2173 18.7129 40.3403 18.1055 40.5864 17.543C40.8325 16.9766 41.188 16.4863 41.6528 16.0723C42.1216 15.6543 42.6919 15.3262 43.3638 15.0879C44.0395 14.8496 44.8032 14.7305 45.6548 14.7305C46.4009 14.7305 47.0845 14.8066 47.7055 14.959C48.3305 15.1074 48.9106 15.3359 49.4458 15.6445L48.5903 17.0508C48.4302 16.9453 48.2446 16.8516 48.0337 16.7695C47.8266 16.6875 47.604 16.6191 47.3657 16.5645C47.1313 16.5059 46.8872 16.4609 46.6333 16.4297C46.3833 16.3984 46.1352 16.3828 45.8891 16.3828C45.2954 16.3828 44.7661 16.457 44.3013 16.6055C43.8364 16.75 43.4438 16.9551 43.1235 17.2207C42.8071 17.4824 42.5649 17.7969 42.397 18.1641C42.2329 18.5273 42.1509 18.9277 42.1509 19.3652C42.1509 19.8184 42.2368 20.2344 42.4087 20.6133C42.5805 20.9922 42.8286 21.3203 43.1528 21.5977C43.4809 21.8711 43.8794 22.0859 44.3481 22.2422C44.8208 22.3945 45.354 22.4707 45.9477 22.4707C46.2173 22.4707 46.4848 22.4512 46.7505 22.4121C47.0161 22.373 47.272 22.3203 47.518 22.2539C47.768 22.1836 48.0083 22.1016 48.2388 22.0078C48.4692 21.9102 48.6841 21.8047 48.8833 21.6914L49.7388 23.0977C49.2388 23.418 48.6606 23.6699 48.0044 23.8535C47.3481 24.0332 46.6509 24.123 45.9126 24.123C44.9712 24.123 44.145 24.002 43.4341 23.7598C42.7231 23.5137 42.1294 23.1777 41.6528 22.752C41.1763 22.3223 40.8169 21.8184 40.5747 21.2402C40.3364 20.6582 40.2173 20.0332 40.2173 19.3652ZM52.6295 14.8418H54.487V22.3711H59.8131V24H52.6295V14.8418ZM61.9188 19.3945C61.9188 18.7031 62.0457 18.0703 62.2996 17.4961C62.5535 16.9219 62.909 16.4297 63.366 16.0195C63.827 15.6055 64.3777 15.2852 65.0184 15.0586C65.6629 14.832 66.3758 14.7188 67.157 14.7188C67.9344 14.7188 68.6453 14.832 69.2898 15.0586C69.9344 15.2852 70.4852 15.6055 70.9422 16.0195C71.4031 16.4297 71.7605 16.9219 72.0145 17.4961C72.2684 18.0703 72.3953 18.7031 72.3953 19.3945C72.3953 20.0898 72.2684 20.7285 72.0145 21.3105C71.7605 21.8887 71.4031 22.3867 70.9422 22.8047C70.4852 23.2227 69.9344 23.5488 69.2898 23.7832C68.6453 24.0137 67.9344 24.1289 67.157 24.1289C66.3758 24.1289 65.6629 24.0137 65.0184 23.7832C64.3777 23.5488 63.827 23.2227 63.366 22.8047C62.909 22.3867 62.5535 21.8887 62.2996 21.3105C62.0457 20.7285 61.9188 20.0898 61.9188 19.3945ZM63.7762 19.3945C63.7762 19.8672 63.8602 20.293 64.0281 20.6719C64.2 21.0508 64.4363 21.375 64.7371 21.6445C65.0418 21.9102 65.3992 22.1152 65.8094 22.2598C66.2234 22.4043 66.6727 22.4766 67.157 22.4766C67.6414 22.4766 68.0887 22.4043 68.4988 22.2598C68.9129 22.1152 69.2703 21.9102 69.5711 21.6445C69.8719 21.375 70.1082 21.0508 70.2801 20.6719C70.452 20.293 70.5379 19.8672 70.5379 19.3945C70.5379 18.9219 70.452 18.498 70.2801 18.123C70.1082 17.748 69.8719 17.4316 69.5711 17.1738C69.2703 16.9121 68.9129 16.7129 68.4988 16.5762C68.0887 16.4395 67.6414 16.3711 67.157 16.3711C66.6727 16.3711 66.2234 16.4395 65.8094 16.5762C65.3992 16.7129 65.0418 16.9121 64.7371 17.1738C64.4363 17.4316 64.2 17.748 64.0281 18.123C63.8602 18.498 63.7762 18.9219 63.7762 19.3945ZM74.9521 14.8418H76.8095V19.8867C76.8095 20.3008 76.8662 20.6699 76.9795 20.9941C77.0927 21.3145 77.2607 21.5859 77.4834 21.8086C77.7099 22.0312 77.9892 22.2012 78.3213 22.3184C78.6533 22.4316 79.04 22.4883 79.4814 22.4883C79.9189 22.4883 80.3037 22.4316 80.6357 22.3184C80.9716 22.2012 81.2509 22.0312 81.4736 21.8086C81.7002 21.5859 81.8701 21.3145 81.9834 20.9941C82.0966 20.6699 82.1533 20.3008 82.1533 19.8867V14.8418H84.0107V20.1094C84.0107 20.7109 83.9091 21.2578 83.706 21.75C83.5029 22.2422 83.208 22.6641 82.8213 23.0156C82.4345 23.3672 81.9599 23.6387 81.3974 23.8301C80.8388 24.0215 80.2002 24.1172 79.4814 24.1172C78.7627 24.1172 78.122 24.0215 77.5595 23.8301C77.0009 23.6387 76.5283 23.3672 76.1416 23.0156C75.7548 22.6641 75.4599 22.2422 75.2568 21.75C75.0537 21.2578 74.9521 20.7109 74.9521 20.1094V14.8418ZM87.1183 14.8418H90.4757C91.4562 14.8418 92.3077 14.9473 93.0304 15.1582C93.753 15.3691 94.3507 15.6719 94.8234 16.0664C95.2999 16.457 95.6534 16.9336 95.8839 17.4961C96.1183 18.0547 96.2355 18.6836 96.2355 19.3828C96.2355 20.0469 96.1202 20.6621 95.8898 21.2285C95.6593 21.791 95.3077 22.2793 94.8351 22.6934C94.3624 23.1035 93.7648 23.4258 93.0421 23.6602C92.3195 23.8906 91.4679 24.0059 90.4874 24.0059L87.1183 24V14.8418ZM90.9327 22.3945C91.4874 22.3945 91.9737 22.3242 92.3917 22.1836C92.8097 22.0391 93.1573 21.8359 93.4347 21.5742C93.7159 21.3125 93.9269 20.9961 94.0675 20.625C94.2081 20.2539 94.2784 19.8398 94.2784 19.3828C94.2784 18.9336 94.2081 18.5293 94.0675 18.1699C93.9269 17.8066 93.7159 17.5 93.4347 17.25C93.1573 16.9961 92.8097 16.8008 92.3917 16.6641C91.9737 16.5273 91.4874 16.459 90.9327 16.459H88.9757V22.3945H90.9327Z" fill="url(#paint0_linear_0_1)"/>
</g>
</g>
</g>
<defs>
<filter id="filter0_i_0_1" x="0" y="0" width="100" height="40" filterUnits="userSpaceOnUse" color-interpolation-filters="sRGB">
<feFlood flood-opacity="0" result="BackgroundImageFix"/>
<feBlend mode="normal" in="SourceGraphic" in2="BackgroundImageFix" result="shape"/>
<feColorMatrix in="SourceAlpha" type="matrix" values="0 0 0 0 0 0 0 0 0 0 0 0 0 0 0 0 0 0 127 0" result="hardAlpha"/>
<feMorphology radius="4" operator="erode" in="SourceAlpha" result="effect1_innerShadow_0_1"/>
<feOffset/>
<feGaussianBlur stdDeviation="4.05"/>
<feComposite in2="hardAlpha" operator="arithmetic" k2="-1" k3="1"/>
<feColorMatrix type="matrix" values="0 0 0 0 0 0 0 0 0 0 0 0 0 0 0 0 0 0 0.25 0"/>
<feBlend mode="normal" in2="shape" result="effect1_innerShadow_0_1"/>
</filter>
<filter id="filter1_d_0_1" x="5.30664" y="14.7188" width="95.4288" height="12.9102" filterUnits="userSpaceOnUse" color-interpolation-filters="sRGB">
<feFlood flood-opacity="0" result="BackgroundImageFix"/>
<feColorMatrix in="SourceAlpha" type="matrix" values="0 0 0 0 0 0 0 0 0 0 0 0 0 0 0 0 0 0 127 0" result="hardAlpha"/>
<feOffset dx="3" dy="2"/>
<feGaussianBlur stdDeviation="0.75"/>
<feComposite in2="hardAlpha" operator="out"/>
<feColorMatrix type="matrix" values="0 0 0 0 0 0 0 0 0 0 0 0 0 0 0 0 0 0 0.47 0"/>
<feBlend mode="normal" in2="BackgroundImageFix" result="effect1_dropShadow_0_1"/>
<feBlend mode="normal" in="SourceGraphic" in2="effect1_dropShadow_0_1" result="shape"/>
</filter>
<linearGradient id="paint0_linear_0_1" x1="100" y1="19" x2="-1.50994e-06" y2="19" gradientUnits="userSpaceOnUse">
<stop stop-color="white"/>
<stop offset="0.14" stop-color="#ADDDFF"/>
<stop offset="0.305" stop-color="#5BBAFF"/>
<stop offset="0.46" stop-color="#42FFA8"/>
<stop offset="0.635" stop-color="#DBFF00"/>
<stop offset="0.84" stop-color="#1DF8C4"/>
<stop offset="1" stop-color="#00FFC2"/>
</linearGradient>
<clipPath id="clip0_0_1">
<rect width="100" height="40" rx="1" fill="white"/>
</clipPath>
</defs>
</svg>
